<svg xmlns="http://www.w3.org/2000/svg" xmlns:xlink="http://www.w3.org/1999/xlink" width="500" zoomAndPan="magnify" viewBox="0 0 375 374.999991" height="500" preserveAspectRatio="xMidYMid meet" version="1.0"><defs><g/><clipPath id="2671c771ff"><path d="M 75.230469 117.914062 L 187.730469 117.914062 L 187.730469 225.164062 L 75.230469 225.164062 Z M 75.230469 117.914062 " clip-rule="nonzero"/></clipPath><clipPath id="0aca10aa6d"><path d="M 187.9375 119.554688 L 299.6875 119.554688 L 299.6875 223.804688 L 187.9375 223.804688 Z M 187.9375 119.554688 " clip-rule="nonzero"/></clipPath></defs><g clip-path="url(#2671c771ff)"><path fill="#ffffff" d="M 185.984375 153.789062 C 179.890625 131.335938 161.445312 117.929688 136.640625 117.929688 L 75.230469 117.929688 L 76.441406 120.707031 C 81.648438 132.636719 93.421875 140.347656 106.441406 140.351562 L 123.164062 140.351562 L 123.300781 140.347656 C 123.9375 140.304688 126.285156 140.160156 129.808594 140.160156 C 133.195312 140.160156 136.648438 140.292969 140.054688 140.554688 L 140.390625 140.582031 C 153.4375 141.609375 171.3125 145.019531 182.359375 155.417969 L 182.5 155.550781 C 182.558594 155.605469 182.617188 155.65625 182.671875 155.714844 L 187.929688 160.949219 Z M 187.667969 179.664062 L 187.652344 179.878906 C 184.335938 207.855469 164.582031 225.234375 136.09375 225.234375 L 96.917969 225.234375 L 96.917969 172.269531 L 98.898438 172.269531 C 110.371094 172.269531 119.699219 181.601562 119.699219 193.070312 L 119.699219 202.449219 L 137.050781 202.449219 C 145.597656 202.449219 152.792969 199.640625 157.867188 194.332031 C 163.027344 188.925781 165.753906 181.117188 165.753906 171.742188 L 165.753906 171.421875 C 165.753906 164.164062 164.160156 157.90625 161.011719 152.820312 L 158.070312 148.070312 L 163.347656 149.902344 C 169.890625 152.171875 175.203125 155.199219 179.125 158.894531 C 184.863281 164.296875 187.734375 171.285156 187.667969 179.664062 " fill-opacity="1" fill-rule="nonzero"/></g><g clip-path="url(#0aca10aa6d)"><path fill="#ffffff" d="M 238.058594 119.601562 C 222.859375 119.601562 210.089844 124.644531 201.132812 134.183594 C 192.5 143.375 187.9375 156.113281 187.9375 171.019531 L 187.9375 171.292969 C 187.9375 186.242188 192.542969 199.117188 201.261719 208.523438 C 210.367188 218.34375 223.253906 223.535156 238.53125 223.535156 L 274.011719 223.535156 C 276.238281 223.535156 278.042969 221.730469 278.042969 219.503906 L 278.042969 170.398438 C 278.042969 168.171875 276.238281 166.367188 274.011719 166.367188 L 241.28125 166.367188 C 238.96875 166.367188 237.09375 168.242188 237.09375 170.554688 L 237.09375 180.484375 C 237.09375 182.796875 238.96875 184.671875 241.28125 184.671875 L 246.847656 184.671875 L 246.847656 188.308594 C 246.847656 190.535156 245.042969 192.339844 242.816406 192.339844 L 237.707031 192.339844 C 225.691406 192.339844 218.796875 184.820312 218.796875 171.707031 L 218.796875 171.433594 C 218.796875 159.914062 224.570312 152.203125 234.234375 150.796875 C 235.269531 150.703125 236.316406 150.625 237.339844 150.5625 L 237.476562 150.558594 C 237.53125 150.558594 237.585938 150.554688 237.640625 150.554688 L 237.722656 150.554688 L 240.183594 150.484375 L 265.273438 150.484375 C 278.035156 150.484375 289.585938 142.921875 294.691406 131.226562 L 299.757812 119.601562 L 238.058594 119.601562 " fill-opacity="1" fill-rule="nonzero"/></g><g fill="#ffffff" fill-opacity="1"><g transform="translate(95.085061, 250.734978)"><g><path d="M 16.75 -9.4375 C 16.75 -7.164062 16.429688 -5.335938 15.796875 -3.953125 C 15.171875 -2.578125 14.222656 -1.570312 12.953125 -0.9375 C 11.691406 -0.3125 9.914062 0 7.625 0 L 1.875 0 L 1.875 -18.890625 L 7.578125 -18.890625 C 9.804688 -18.890625 11.578125 -18.566406 12.890625 -17.921875 C 14.203125 -17.273438 15.171875 -16.265625 15.796875 -14.890625 C 16.429688 -13.523438 16.75 -11.707031 16.75 -9.4375 Z M 12.78125 -9.46875 C 12.78125 -11.113281 12.617188 -12.332031 12.296875 -13.125 C 11.972656 -13.925781 11.421875 -14.5 10.640625 -14.84375 C 9.867188 -15.195312 8.722656 -15.375 7.203125 -15.375 L 5.734375 -15.375 L 5.734375 -3.515625 L 7.203125 -3.515625 C 8.722656 -3.515625 9.867188 -3.691406 10.640625 -4.046875 C 11.410156 -4.398438 11.957031 -4.984375 12.28125 -5.796875 C 12.613281 -6.617188 12.78125 -7.84375 12.78125 -9.46875 Z M 12.78125 -9.46875 "/></g></g></g><g fill="#ffffff" fill-opacity="1"><g transform="translate(113.007731, 250.734978)"><g><path d="M 10.421875 0 L 10.421875 -1.484375 C 9.035156 -0.210938 7.546875 0.421875 5.953125 0.421875 C 4.367188 0.421875 3.171875 0.00390625 2.359375 -0.828125 C 1.546875 -1.660156 1.140625 -2.726562 1.140625 -4.03125 C 1.140625 -5.050781 1.347656 -5.890625 1.765625 -6.546875 C 2.179688 -7.210938 2.796875 -7.734375 3.609375 -8.109375 C 4.421875 -8.492188 5.59375 -8.757812 7.125 -8.90625 L 10.140625 -9.203125 L 10.140625 -9.84375 C 10.140625 -10.644531 9.894531 -11.191406 9.40625 -11.484375 C 8.925781 -11.773438 8.222656 -11.921875 7.296875 -11.921875 C 6.535156 -11.921875 5.878906 -11.796875 5.328125 -11.546875 C 4.773438 -11.296875 4.367188 -10.929688 4.109375 -10.453125 L 1.359375 -12.21875 C 1.847656 -13.03125 2.601562 -13.648438 3.625 -14.078125 C 4.65625 -14.515625 5.898438 -14.734375 7.359375 -14.734375 C 9.585938 -14.734375 11.191406 -14.34375 12.171875 -13.5625 C 13.160156 -12.78125 13.65625 -11.503906 13.65625 -9.734375 L 13.65625 0 Z M 10.140625 -6.640625 L 8.359375 -6.484375 C 7.085938 -6.367188 6.171875 -6.125 5.609375 -5.75 C 5.054688 -5.382812 4.78125 -4.828125 4.78125 -4.078125 C 4.78125 -3.421875 4.960938 -2.972656 5.328125 -2.734375 C 5.691406 -2.492188 6.171875 -2.375 6.765625 -2.375 C 7.191406 -2.375 7.710938 -2.507812 8.328125 -2.78125 C 8.941406 -3.050781 9.546875 -3.429688 10.140625 -3.921875 Z M 10.140625 -6.640625 "/></g></g></g><g fill="#ffffff" fill-opacity="1"><g transform="translate(128.555273, 250.734978)"><g><path d="M 11.203125 0 L 11.203125 -7.890625 C 11.203125 -9.378906 11.066406 -10.375 10.796875 -10.875 C 10.535156 -11.375 10.03125 -11.625 9.28125 -11.625 C 8.238281 -11.625 6.976562 -10.929688 5.5 -9.546875 L 5.5 0 L 1.984375 0 L 1.984375 -14.3125 L 5.5 -14.3125 L 5.5 -12.46875 C 6.25 -13.207031 7.046875 -13.769531 7.890625 -14.15625 C 8.734375 -14.539062 9.5625 -14.734375 10.375 -14.734375 C 11.84375 -14.734375 12.9375 -14.332031 13.65625 -13.53125 C 14.375 -12.726562 14.734375 -11.398438 14.734375 -9.546875 L 14.734375 0 Z M 11.203125 0 "/></g></g></g><g fill="#ffffff" fill-opacity="1"><g transform="translate(145.167528, 250.734978)"><g><path d="M 5.703125 -18.21875 C 5.703125 -17.550781 5.535156 -17.085938 5.203125 -16.828125 C 4.878906 -16.566406 4.382812 -16.4375 3.71875 -16.4375 C 2.96875 -16.4375 2.457031 -16.585938 2.1875 -16.890625 C 1.914062 -17.203125 1.78125 -17.644531 1.78125 -18.21875 C 1.78125 -18.851562 1.925781 -19.3125 2.21875 -19.59375 C 2.507812 -19.875 3.007812 -20.015625 3.71875 -20.015625 C 4.425781 -20.015625 4.929688 -19.878906 5.234375 -19.609375 C 5.546875 -19.335938 5.703125 -18.875 5.703125 -18.21875 Z M 1.984375 0 L 1.984375 -14.3125 L 5.5 -14.3125 L 5.5 0 Z M 1.984375 0 "/></g></g></g><g fill="#ffffff" fill-opacity="1"><g transform="translate(152.66147, 250.734978)"><g><path d="M 4.890625 -6.234375 C 4.953125 -4.960938 5.257812 -4.046875 5.8125 -3.484375 C 6.363281 -2.929688 7.238281 -2.65625 8.4375 -2.65625 C 9.125 -2.65625 9.726562 -2.742188 10.25 -2.921875 C 10.78125 -3.097656 11.238281 -3.429688 11.625 -3.921875 L 14.25 -2.046875 C 13.675781 -1.222656 12.929688 -0.601562 12.015625 -0.1875 C 11.097656 0.21875 9.847656 0.421875 8.265625 0.421875 C 5.910156 0.421875 4.148438 -0.195312 2.984375 -1.4375 C 1.828125 -2.675781 1.25 -4.546875 1.25 -7.046875 C 1.25 -12.171875 3.546875 -14.734375 8.140625 -14.734375 C 10.171875 -14.734375 11.722656 -14.15625 12.796875 -13 C 13.867188 -11.851562 14.40625 -10.175781 14.40625 -7.96875 L 14.40625 -6.234375 Z M 10.90625 -8.671875 C 10.90625 -10.835938 9.953125 -11.921875 8.046875 -11.921875 C 7.421875 -11.921875 6.90625 -11.8125 6.5 -11.59375 C 6.101562 -11.382812 5.785156 -11.066406 5.546875 -10.640625 C 5.304688 -10.222656 5.117188 -9.566406 4.984375 -8.671875 Z M 10.90625 -8.671875 "/></g></g></g><g fill="#ffffff" fill-opacity="1"><g transform="translate(168.263612, 250.734978)"><g><path d="M 1.984375 0 L 1.984375 -20.328125 L 5.5 -20.328125 L 5.5 0 Z M 1.984375 0 "/></g></g></g><g fill="#ffffff" fill-opacity="1"><g transform="translate(175.757554, 250.734978)"><g/></g></g><g fill="#ffffff" fill-opacity="1"><g transform="translate(182.473437, 250.734978)"><g><path d="M 14.53125 -13.578125 C 14.050781 -14.359375 13.460938 -14.9375 12.765625 -15.3125 C 12.078125 -15.6875 11.210938 -15.875 10.171875 -15.875 C 8.453125 -15.875 7.207031 -15.320312 6.4375 -14.21875 C 5.664062 -13.113281 5.28125 -11.46875 5.28125 -9.28125 C 5.28125 -7.113281 5.660156 -5.523438 6.421875 -4.515625 C 7.179688 -3.515625 8.40625 -3.015625 10.09375 -3.015625 C 11.363281 -3.015625 12.535156 -3.28125 13.609375 -3.8125 L 13.609375 -6.75 L 9.921875 -6.75 L 9.921875 -10.140625 L 17.46875 -10.140625 L 17.46875 -1.78125 C 16.59375 -1.132812 15.503906 -0.609375 14.203125 -0.203125 C 12.910156 0.191406 11.578125 0.390625 10.203125 0.390625 C 7.253906 0.390625 5.035156 -0.375 3.546875 -1.90625 C 2.054688 -3.445312 1.3125 -5.90625 1.3125 -9.28125 C 1.3125 -15.945312 4.242188 -19.28125 10.109375 -19.28125 C 11.828125 -19.28125 13.320312 -18.992188 14.59375 -18.421875 C 15.863281 -17.847656 16.832031 -17.007812 17.5 -15.90625 Z M 14.53125 -13.578125 "/></g></g></g><g fill="#ffffff" fill-opacity="1"><g transform="translate(201.788425, 250.734978)"><g><path d="M 10.421875 0 L 10.421875 -1.484375 C 9.035156 -0.210938 7.546875 0.421875 5.953125 0.421875 C 4.367188 0.421875 3.171875 0.00390625 2.359375 -0.828125 C 1.546875 -1.660156 1.140625 -2.726562 1.140625 -4.03125 C 1.140625 -5.050781 1.347656 -5.890625 1.765625 -6.546875 C 2.179688 -7.210938 2.796875 -7.734375 3.609375 -8.109375 C 4.421875 -8.492188 5.59375 -8.757812 7.125 -8.90625 L 10.140625 -9.203125 L 10.140625 -9.84375 C 10.140625 -10.644531 9.894531 -11.191406 9.40625 -11.484375 C 8.925781 -11.773438 8.222656 -11.921875 7.296875 -11.921875 C 6.535156 -11.921875 5.878906 -11.796875 5.328125 -11.546875 C 4.773438 -11.296875 4.367188 -10.929688 4.109375 -10.453125 L 1.359375 -12.21875 C 1.847656 -13.03125 2.601562 -13.648438 3.625 -14.078125 C 4.65625 -14.515625 5.898438 -14.734375 7.359375 -14.734375 C 9.585938 -14.734375 11.191406 -14.34375 12.171875 -13.5625 C 13.160156 -12.78125 13.65625 -11.503906 13.65625 -9.734375 L 13.65625 0 Z M 10.140625 -6.640625 L 8.359375 -6.484375 C 7.085938 -6.367188 6.171875 -6.125 5.609375 -5.75 C 5.054688 -5.382812 4.78125 -4.828125 4.78125 -4.078125 C 4.78125 -3.421875 4.960938 -2.972656 5.328125 -2.734375 C 5.691406 -2.492188 6.171875 -2.375 6.765625 -2.375 C 7.191406 -2.375 7.710938 -2.507812 8.328125 -2.78125 C 8.941406 -3.050781 9.546875 -3.429688 10.140625 -3.921875 Z M 10.140625 -6.640625 "/></g></g></g><g fill="#ffffff" fill-opacity="1"><g transform="translate(217.335966, 250.734978)"><g><path d="M 1.984375 0 L 1.984375 -20.328125 L 5.5 -20.328125 L 5.5 0 Z M 1.984375 0 "/></g></g></g><g fill="#ffffff" fill-opacity="1"><g transform="translate(224.829909, 250.734978)"><g><path d="M 1.984375 0 L 1.984375 -20.328125 L 5.5 -20.328125 L 5.5 0 Z M 1.984375 0 "/></g></g></g><g fill="#ffffff" fill-opacity="1"><g transform="translate(232.323851, 250.734978)"><g><path d="M 4.890625 -6.234375 C 4.953125 -4.960938 5.257812 -4.046875 5.8125 -3.484375 C 6.363281 -2.929688 7.238281 -2.65625 8.4375 -2.65625 C 9.125 -2.65625 9.726562 -2.742188 10.25 -2.921875 C 10.78125 -3.097656 11.238281 -3.429688 11.625 -3.921875 L 14.25 -2.046875 C 13.675781 -1.222656 12.929688 -0.601562 12.015625 -0.1875 C 11.097656 0.21875 9.847656 0.421875 8.265625 0.421875 C 5.910156 0.421875 4.148438 -0.195312 2.984375 -1.4375 C 1.828125 -2.675781 1.25 -4.546875 1.25 -7.046875 C 1.25 -12.171875 3.546875 -14.734375 8.140625 -14.734375 C 10.171875 -14.734375 11.722656 -14.15625 12.796875 -13 C 13.867188 -11.851562 14.40625 -10.175781 14.40625 -7.96875 L 14.40625 -6.234375 Z M 10.90625 -8.671875 C 10.90625 -10.835938 9.953125 -11.921875 8.046875 -11.921875 C 7.421875 -11.921875 6.90625 -11.8125 6.5 -11.59375 C 6.101562 -11.382812 5.785156 -11.066406 5.546875 -10.640625 C 5.304688 -10.222656 5.117188 -9.566406 4.984375 -8.671875 Z M 10.90625 -8.671875 "/></g></g></g><g fill="#ffffff" fill-opacity="1"><g transform="translate(247.925993, 250.734978)"><g><path d="M 14.625 -0.265625 C 14.625 1.640625 14.035156 3.054688 12.859375 3.984375 C 11.679688 4.921875 9.796875 5.390625 7.203125 5.390625 C 5.066406 5.390625 3.195312 4.976562 1.59375 4.15625 L 2.640625 1.28125 C 4.117188 1.976562 5.640625 2.328125 7.203125 2.328125 C 8.660156 2.328125 9.671875 2.113281 10.234375 1.6875 C 10.804688 1.269531 11.09375 0.566406 11.09375 -0.421875 L 11.09375 -1.59375 C 9.925781 -0.53125 8.519531 0 6.875 0 C 5.132812 0 3.757812 -0.625 2.75 -1.875 C 1.75 -3.132812 1.25 -4.941406 1.25 -7.296875 C 1.25 -8.773438 1.484375 -10.078125 1.953125 -11.203125 C 2.421875 -12.328125 3.109375 -13.195312 4.015625 -13.8125 C 4.921875 -14.425781 6.015625 -14.734375 7.296875 -14.734375 C 8.054688 -14.734375 8.8125 -14.566406 9.5625 -14.234375 C 10.320312 -13.898438 10.957031 -13.476562 11.46875 -12.96875 L 11.921875 -14.3125 L 14.625 -14.3125 Z M 11.09375 -10.34375 C 10.132812 -11.195312 9.082031 -11.625 7.9375 -11.625 C 7.082031 -11.625 6.359375 -11.234375 5.765625 -10.453125 C 5.179688 -9.671875 4.890625 -8.640625 4.890625 -7.359375 C 4.890625 -5.898438 5.148438 -4.820312 5.671875 -4.125 C 6.191406 -3.4375 6.875 -3.09375 7.71875 -3.09375 C 8.875 -3.09375 10 -3.5625 11.09375 -4.5 Z M 11.09375 -10.34375 "/></g></g></g><g fill="#ffffff" fill-opacity="1"><g transform="translate(264.538247, 250.734978)"><g><path d="M 14.984375 -7.125 C 14.984375 -4.738281 14.429688 -2.882812 13.328125 -1.5625 C 12.234375 -0.238281 10.503906 0.421875 8.140625 0.421875 C 3.546875 0.421875 1.25 -2.09375 1.25 -7.125 C 1.25 -9.539062 1.800781 -11.410156 2.90625 -12.734375 C 4.007812 -14.066406 5.753906 -14.734375 8.140625 -14.734375 C 10.503906 -14.734375 12.234375 -14.066406 13.328125 -12.734375 C 14.429688 -11.410156 14.984375 -9.539062 14.984375 -7.125 Z M 11.34375 -7.125 C 11.34375 -8.695312 11.097656 -9.84375 10.609375 -10.5625 C 10.117188 -11.289062 9.296875 -11.65625 8.140625 -11.65625 C 6.992188 -11.65625 6.164062 -11.285156 5.65625 -10.546875 C 5.144531 -9.804688 4.890625 -8.664062 4.890625 -7.125 C 4.890625 -5.59375 5.140625 -4.460938 5.640625 -3.734375 C 6.148438 -3.015625 6.984375 -2.65625 8.140625 -2.65625 C 9.273438 -2.65625 10.09375 -3.007812 10.59375 -3.71875 C 11.09375 -4.4375 11.34375 -5.570312 11.34375 -7.125 Z M 11.34375 -7.125 "/></g></g></g></svg>